<svg xmlns="http://www.w3.org/2000/svg" viewBox="0 0 145.86 164.67"><defs><style>.cls-1{fill:#69f;}</style></defs><g id="Layer_2" data-name="Layer 2"><g id="Layer_1-2" data-name="Layer 1"><path class="cls-1" d="M145.86,76a64.81,64.81,0,0,0-15-41.51c5.37-12.64.1-28.06-13.26-32.89-10.93-4-22.32-.06-29.92,8A66,66,0,0,1,108.06,15a14.06,14.06,0,0,1,5.62-2c2.36-.32,13.78,2.3,8.32,12.58A64.89,64.89,0,0,0,82.24,10.88l-1.48,0A64.74,64.74,0,0,0,42.57,23.27C25.11,22.28,8,26.74.6,45.81c-1.87,4.78.85,4,5.31,4.17,5.62.22,8.43-1.92,10.29-6.69,2-5.1,7-6.72,12.71-6.64A64.73,64.73,0,0,0,15.72,73.19C5.08,78.45-.86,89.8,1,102.53,3.26,118,13.05,127.06,28.51,125.14a30.88,30.88,0,0,0,5.8-1.28,67.6,67.6,0,0,1-10.19-12.6,15.82,15.82,0,0,1-2.42.19c-12.21,0-12.92-14.91-4.41-21a65.32,65.32,0,0,0,46,48.21,30,30,0,0,0,6.78,17.49c12.31,15.82,56.71,8.39,54.74-12.35-1.15-12.06-19.62-7.88-14.79,5,.29.76-3.17,1.73-5.61,2.62a21.8,21.8,0,0,1-9.52,1.33,13.22,13.22,0,0,1-8.9-3.5c-2.26-2.06-3-5.26-3.13-8.23A65.18,65.18,0,0,0,145.86,76ZM76,19.62c1.58-.14,3.18-.21,4.79-.21a56.28,56.28,0,0,1,24.71,5.69,56.89,56.89,0,0,1,11,7,28.24,28.24,0,0,1-15.28,5.44A21.62,21.62,0,0,1,93,36.34c1.42-2.84,3-5.86,5.14-9.51.5-.86,1-1.66,1.47-2.42a54.56,54.56,0,0,0-18.85-3.34H80C78.51,24,77.14,27,75.81,29.94c-3.12-1-6.28-1.81-9.44-2.62S59.72,25.68,56.22,25A56.19,56.19,0,0,1,76,19.62ZM24.48,70.47a56.4,56.4,0,0,1,14.33-32.4,79.71,79.71,0,0,1,10.28,3.36c5.32,2.15,11.42,4.36,17.79,6.4-2.93,5.33-6,10.75-8.79,15.8-1,1.88-2.08,3.84-3.16,5.86-10,0-20.28-.48-30.16.93ZM64.18,130a56.21,56.21,0,0,1-16.55-8.27A56.89,56.89,0,0,1,28.26,97a57.67,57.67,0,0,1-2.77-9h.12c6.63,0,13,0,19.44,0l-.7,1.32C42,93.61,39,100.41,34.42,105.33a55.37,55.37,0,0,0,10.73,12.36c6.57-5.59,11.32-13.47,15.37-21.19q2.17-4.14,4.63-8.56c2.49,0,5,0,7.46,0,6.7,0,14.17,0,21.23.07C79.77,101.59,67.53,115.89,64.18,130Zm19.72,2.39A58.6,58.6,0,0,1,94.82,114.6c4.22-4.55,13.62-15.51,24.63-27.73,6-6.64,5.44-16.84-2.71-17.05-6.79-.18-14.55-.36-21.59-.34-6.31,0-13,0-19.58,0,3.16-5.59,6.29-11.2,9.17-16.62,2.06.48,4.09.93,6.09,1.33,13.79,2.75,27-1.49,35.31-11.9A56.51,56.51,0,0,1,83.9,132.41Z"/></g></g></svg>